:SAMPLES-PER-SECOND 30
:FULLY-SPECIFIED
:DEGREES
530
root  43.8882 39.1603 4.89108 177.014 76.0884 178.742
RightUpLeg  -11.0737 4.21885 -2.00707
RightLeg  12.644 16.1255 -0.0387999
RightFoot  0.897491 -0.112234 1.10277
RightToes  5.82063e-011 0 -3.6325e-017
Spine  15.8275 -1.73212 6.45496
Spine1  14.785 0.000737668 -3.36676
HEad  -10.2386 -14.5787 -3.28542
LeftShoulder1  1.90904 -3.69023 -20.0869
LeftArm  -1.43325 -60.457 -47.5434
LeftForeArm  -11.2143 -19.7853 -5.53083
LeftHand  -0.0400928 5.50175 -4.86747
RightShoulder  0.918298 0.857039 14.2745
RightArm  -19.5963 48.7091 37.0461
RightForeArm  -21.8099 28.1103 7.14318
RightHand  -0.151015 3.06902 -2.29654
LeftUpLeg  -11.6735 0.63411 -0.0747997
LeftLeg  11.8965 -15.2781 -2.61663
LeftFoot  4.75916 -0.411602 2.70575
LeftToes  2.58842e-009 -1.78069e-010 3.24654e-012
531
root  43.9084 39.1722 5.2437 176.679 74.7289 178.374
RightUpLeg  -10.9278 1.85422 -1.81219
RightLeg  12.4245 16.9317 0.32257
RightFoot  1.09246 -0.100184 0.987095
RightToes  5.82063e-011 0 -3.6325e-017
Spine  16.4852 -1.82763 6.81086
Spine1  14.3061 0.0316466 -3.57214
HEad  -11.4876 -14.2716 -2.01114
LeftShoulder1  1.93951 -3.79129 -20.1434
LeftArm  0.200737 -59.9481 -47.4217
LeftForeArm  -12.0624 -21.802 -5.52181
LeftHand  -0.034067 5.37362 -4.82175
RightShoulder  0.828673 0.26425 15.2712
RightArm  -20.5394 46.7914 36.1706
RightForeArm  -20.4805 32.091 8.12294
RightHand  -0.119347 2.64062 -1.93743
LeftUpLeg  -11.6898 0.0133639 0.0871447
LeftLeg  11.3758 -16.0306 -2.37816
LeftFoot  5.13527 -0.308702 1.91646
LeftToes  2.58842e-009 -1.78069e-010 3.24654e-012
532
root  43.9389 39.1745 5.62713 176.838 73.0421 178.406
RightUpLeg  -10.8671 -0.570613 -1.57599
RightLeg  12.1762 17.4777 0.761874
RightFoot  1.31363 -0.0826946 0.827498
RightToes  5.82063e-011 0 -3.6325e-017
Spine  16.51 -1.93914 6.79669
Spine1  14.4289 -0.288523 -2.97163
HEad  -12.6452 -13.3669 -1.44769
LeftShoulder1  1.91305 -3.53225 -20.7836
LeftArm  0.464369 -59.1874 -47.3746
LeftForeArm  -11.3417 -24.1421 -5.69853
LeftHand  -0.0178556 5.02912 -4.4252
RightShoulder  0.823858 0.261975 15.1704
RightArm  -22.1336 44.0969 35.6628
RightForeArm  -19.166 36.553 9.35955
RightHand  -0.122646 2.17051 -2.06971
LeftUpLeg  -11.8842 -0.603423 0.357935
LeftLeg  10.907 -17.2487 -2.23943
LeftFoot  5.55905 -0.211551 1.19728
LeftToes  2.58842e-009 -1.78069e-010 3.24654e-012
533
root  43.9486 39.1737 6.01149 177.331 70.9981 178.574
RightUpLeg  -11.1356 -2.21479 -1.3635
RightLeg  12.1045 16.8755 1.03801
RightFoot  1.50093 -0.0129831 0.205177
RightToes  5.82063e-011 0 -3.6325e-017
Spine  16.2967 -2.27645 7.28274
Spine1  14.4736 -0.569011 -3.14254
HEad  -12.9028 -12.9947 -1.31114
LeftShoulder1  1.89032 -3.38808 -21.0369
LeftArm  0.686051 -58.2007 -46.9394
LeftForeArm  -10.9827 -26.6505 -6.27996
LeftHand  -0.0345562 5.41212 -4.49431
RightShoulder  0.782903 -0.0846917 16.3076
RightArm  -22.9841 41.7908 34.7325
RightForeArm  -18.1442 40.9346 10.7634
RightHand  -0.138015 1.71613 -2.39555
LeftUpLeg  -12.3138 -0.851636 0.578773
LeftLeg  10.2325 -19.0344 -2.18443
LeftFoot  6.0731 -0.114711 0.505687
LeftToes  2.58842e-009 -1.78069e-010 3.24654e-012
534
root  43.9439 39.173 6.40752 177.054 68.8443 178.153
RightUpLeg  -11.2193 -3.92306 -1.53123
RightLeg  12.1227 16.1936 1.62951
RightFoot  1.63806 0.0427416 -0.275394
RightToes  5.82063e-011 0 -3.6325e-017
Spine  16.1426 -2.45534 7.12329
Spine1  14.5591 -0.942655 -2.73728
HEad  -13.0446 -13.3166 -1.11445
LeftShoulder1  1.88286 -3.3391 -21.1328
LeftArm  0.372459 -56.5383 -47.3172
LeftForeArm  -9.6897 -29.0104 -6.79172
LeftHand  0.00246828 4.6107 -4.92086
RightShoulder  0.703127 -0.534677 17.171
RightArm  -23.2697 39.0338 34.3722
RightForeArm  -17.1551 45.7134 12.5951
RightHand  -0.221732 1.86115 -3.73027
LeftUpLeg  -12.4762 -0.96927 0.497211
LeftLeg  9.35692 -20.6579 -1.96024
LeftFoot  6.78269 -0.0347387 -0.0348418
LeftToes  2.58842e-009 -1.78069e-010 3.24654e-012
535
root  43.9378 39.2043 6.80063 176.438 66.6283 177.497
RightUpLeg  -10.9709 -5.64297 -1.86959
RightLeg  11.7293 15.4984 2.11783
RightFoot  1.94623 0.0989273 -0.736156
RightToes  5.82063e-011 0 -3.6325e-017
Spine  15.8628 -2.44689 6.88772
Spine1  15.0361 -1.18648 -2.11091
HEad  -13.293 -14.3096 -0.576531
LeftShoulder1  1.85038 -3.07101 -21.7984
LeftArm  1.4381 -55.2058 -47.4048
LeftForeArm  -9.9788 -31.5472 -7.46015
LeftHand  0.0230589 4.09636 -4.38508
RightShoulder  0.619195 -0.906237 17.3729
RightArm  -23.977 35.5105 34.0521
RightForeArm  -15.0901 51.3048 15.1581
RightHand  -0.248616 1.13627 -4.55601
LeftUpLeg  -12.2594 -0.643528 0.190339
LeftLeg  7.98199 -21.6789 -1.4654
LeftFoot  7.09083 0.206142 -1.53549
LeftToes  2.58842e-009 -1.78069e-010 3.24654e-012
536
root  43.9131 39.1992 7.16012 176.428 64.3923 177.14
RightUpLeg  -11.1938 -6.7063 -2.18795
RightLeg  11.5736 14.2664 2.52863
RightFoot  1.97628 0.119901 -0.910764
RightToes  5.82063e-011 0 -3.6325e-017
Spine  15.5189 -2.67659 6.57206
Spine1  14.9845 -1.62926 -1.79154
HEad  -13.2588 -14.5468 0.0128345
LeftShoulder1  1.76935 -2.71724 -22.1095
LeftArm  1.20838 -52.7116 -46.9756
LeftForeArm  -9.42292 -34.5268 -8.24919
LeftHand  0.0296194 3.84347 -4.12778
RightShoulder  0.631952 -0.921286 18.0797
RightArm  -24.1825 32.2343 33.5895
RightForeArm  -11.8735 56.4854 18.2218
RightHand  -0.244852 0.287832 -5.05416
LeftUpLeg  -12.5058 -0.0481768 -0.0808945
LeftLeg  7.00949 -19.2534 -1.02807
LeftFoot  6.0898 0.430536 -3.09301
LeftToes  2.58842e-009 -1.78069e-010 3.24654e-012
537
root  43.8815 39.2084 7.52519 176.198 61.8488 176.921
RightUpLeg  -11.0306 -7.65777 -2.55979
RightLeg  11.4388 12.6096 2.85963
RightFoot  2.12355 0.187419 -1.46377
RightToes  5.82063e-011 0 -3.6325e-017
Spine  15.1845 -2.79372 6.5746
Spine1  15.4297 -1.8165 -1.64428
HEad  -12.7222 -14.477 -0.440173
LeftShoulder1  1.75532 -2.60478 -22.4185
LeftArm  1.28107 -50.1068 -47.2525
LeftForeArm  -8.62137 -37.6384 -9.14468
LeftHand  0.0470941 3.20166 -3.56361
RightShoulder  0.535886 -1.34981 18.5846
RightArm  -24.462 28.7414 33.0554
RightForeArm  -7.44174 61.687 22.3593
RightHand  -0.223322 -0.172885 -4.9891
LeftUpLeg  -12.6644 0.545067 -0.157567
LeftLeg  7.68816 -13.5346 -1.03647
LeftFoot  3.78667 0.623705 -4.83289
LeftToes  2.58842e-009 -1.78069e-010 3.24654e-012
538
root  43.8257 39.2573 7.8685 175.639 59.271 176.512
RightUpLeg  -10.521 -8.19282 -2.99752
RightLeg  10.8826 10.6504 2.7242
RightFoot  2.43166 0.219321 -1.67776
RightToes  5.82063e-011 0 -3.6325e-017
Spine  15.1231 -2.98584 6.64468
Spine1  15.8087 -1.8796 -1.97767
HEad  -12.3843 -14.633 -0.445272
LeftShoulder1  1.73678 -2.3751 -23.2843
LeftArm  1.48991 -47.4283 -46.723
LeftForeArm  -7.93164 -41.3347 -10.3268
LeftHand  0.0457854 3.38598 -3.92791
RightShoulder  0.420413 -1.8378 19.0341
RightArm  -24.6285 25.0298 32.6908
RightForeArm  -1.3763 66.6162 28.0724
RightHand  -0.209853 -0.692323 -5.137
LeftUpLeg  -12.545 1.24695 -0.495977
LeftLeg  9.6346 -7.31897 -0.880251
LeftFoot  1.6645 0.367915 -3.29056
LeftToes  2.58842e-009 -1.78069e-010 3.24654e-012
539
root  43.76 39.3077 8.2121 175.225 56.5219 175.992
RightUpLeg  -10.1952 -8.92353 -3.63009
RightLeg  10.2732 8.72718 2.79006
RightFoot  2.67718 0.240983 -1.80997
RightToes  5.82063e-011 0 -3.6325e-017
Spine  15.6189 -3.15141 5.34618
Spine1  14.8937 -2.46737 -1.12732
HEad  -11.5157 -14.5459 -0.424996
LeftShoulder1  1.53939 -1.54119 -24.291
LeftArm  1.81122 -44.2152 -46.0982
LeftForeArm  -6.78608 -44.6014 -11.4873
LeftHand  0.0615973 2.72635 -3.41209
RightShoulder  0.447887 -1.73994 19.1856
RightArm  -23.9471 20.642 32.5909
RightForeArm  7.16505 71.1297 36.2147
RightHand  -0.19566 -0.78282 -4.86566
LeftUpLeg  -12.2233 1.93889 -0.9988
LeftLeg  11.6753 -3.04691 -0.393944
LeftFoot  -0.60577 0.118124 -1.22285
LeftToes  2.58842e-009 -1.78069e-010 3.24654e-012
540
root  43.7145 39.3499 8.51503 174.775 53.6344 175.936
RightUpLeg  -9.29932 -9.32975 -4.06997
RightLeg  9.65029 6.27733 2.54964
RightFoot  2.85898 0.248592 -1.83801
RightToes  5.82063e-011 0 -3.6325e-017
Spine  16.6963 -3.37762 4.0085
Spine1  13.7156 -3.15544 -0.0609759
HEad  -10.3739 -13.9073 -0.652773
LeftShoulder1  1.33798 -0.785772 -24.975
LeftArm  1.32843 -40.159 -45.3062
LeftForeArm  -4.94108 -48.1335 -12.8784
LeftHand  0.0809625 2.35149 -3.67431
RightShoulder  0.482684 -1.63592 19.6502
RightArm  -22.8243 16.3371 32.3726
RightForeArm  19.3948 74.7223 47.334
RightHand  -0.158478 -1.57181 -4.62526
LeftUpLeg  -11.0788 3.25756 -1.19048
LeftLeg  13.6631 -1.18698 -0.0805234
LeftFoot  -2.33722 0.0245514 -0.175922
LeftToes  2.58842e-009 -1.78069e-010 3.24654e-012
541
root  43.6296 39.3495 8.79338 175.039 50.5172 176.123
RightUpLeg  -9.19506 -9.71716 -4.44534
RightLeg  9.49813 3.69873 2.39018
RightFoot  2.82605 0.206044 -1.50174
RightToes  5.82063e-011 0 -3.6325e-017
Spine  15.8499 -3.39386 5.1301
Spine1  14.7283 -2.70945 -1.05212
HEad  -9.98158 -14.3703 -0.730401
LeftShoulder1  1.39432 -0.929929 -25.2598
LeftArm  1.6313 -37.0388 -45.6679
LeftForeArm  -2.83626 -51.5373 -14.4109
LeftHand  0.0684818 2.58177 -3.50706
RightShoulder  0.337946 -2.2087 20.3028
RightArm  -23.0049 11.2641 31.6639
RightForeArm  35.6541 77.4223 64.0199
RightHand  -0.169248 -1.36366 -4.73233
LeftUpLeg  -10.4569 4.76956 -0.992633
LeftLeg  15.7504 -0.45796 0.147977
LeftFoot  -3.89956 0.0675203 -0.661335
LeftToes  2.58842e-009 -1.78069e-010 3.24654e-012
542
root  43.5404 39.3607 9.06877 175.175 46.8924 175.816
RightUpLeg  -9.21619 -10.6542 -5.34177
RightLeg  9.31695 1.18274 2.51961
RightFoot  2.7679 0.193237 -1.40858
RightToes  5.82063e-011 0 -3.6325e-017
Spine  14.7329 -3.50021 5.7895
Spine1  15.6911 -2.36485 -2.24385
HEad  -9.31793 -14.9444 -1.0728
LeftShoulder1  1.41093 -0.997598 -25.1869
LeftArm  1.68841 -33.7747 -45.8165
LeftForeArm  -0.173404 -54.4884 -15.9205
LeftHand  0.0815331 2.1976 -3.49073
RightShoulder  0.137984 -2.99612 21.9253
RightArm  -22.4836 6.57364 30.8938
RightForeArm  54.5215 78.5874 82.9387
RightHand  -0.175912 -1.63773 -5.24315
LeftUpLeg  -9.89359 5.75753 -0.920881
LeftLeg  17.3077 0.827419 0.613576
LeftFoot  -4.64866 0.0538627 -0.44035
LeftToes  2.58842e-009 -1.78069e-010 3.24654e-012
